<svg width="414" height="179" viewBox="0 0 414 179" fill="none" xmlns="http://www.w3.org/2000/svg">
<path d="M201.897 13.7106C202.307 13.7123 202.716 13.7136 203.125 13.7144C207.196 13.7256 211.187 13.8484 215.2 14.6L215.94 14.7364C219.001 15.3156 222.026 16.0714 225 17L225.509 17.1568C229.395 18.3632 233.201 19.878 236.798 21.7868C237.076 21.9344 237.356 22.0804 237.636 22.2248C241.711 24.3294 245.647 26.8966 249.2 29.8C249.384 29.946 249.568 30.092 249.757 30.242C250.966 31.211 252.111 32.236 253.245 33.289C253.693 33.7013 254.149 34.1051 254.612 34.5C256.197 35.8764 257.643 37.4014 259 39C259.183 39.21 259.365 39.4199 259.548 39.6296C269.6 51.1864 269.6 51.1864 269.6 54.8C267.455 54.8798 265.309 54.9385 263.163 54.976C262.166 54.994 261.17 55.0178 260.174 55.0564C259.21 55.0938 258.248 55.1138 257.283 55.1224C256.917 55.1288 256.552 55.1411 256.186 55.1594C253.406 55.2944 253.406 55.2944 252.394 54.4686C251.631 53.657 251.03 52.7566 250.454 51.8062C250.105 51.2486 249.708 50.7558 249.287 50.25L248.859 49.7336C246.738 47.2696 244.499 44.8568 241.946 42.8368C241.589 42.552 241.24 42.2586 240.898 41.957C237.937 39.3594 234.487 37.2196 231 35.4L230.623 35.2008C223.691 31.5546 216.195 29.353 208.4 28.6L207.847 28.5428C206.099 28.3768 204.354 28.3516 202.6 28.35L202.124 28.3494C196.082 28.3546 190.185 29.2656 184.4 31L183.925 31.142C172.647 34.578 162.56 41.6488 155.125 50.75L154.812 51.1324L154.495 51.5218L154.172 51.9078C153.78 52.4008 153.78 52.4008 153.474 53.0026C152.519 54.619 152.519 54.619 151.615 54.9342C150.469 55.1414 149.308 55.0752 148.149 55.0342C147.775 55.0298 147.401 55.0265 147.027 55.0242C146.047 55.015 145.068 54.9914 144.089 54.9648C143.087 54.9402 142.086 54.9292 141.084 54.9172C139.122 54.8906 137.161 54.8516 135.2 54.8C136.851 50.5992 139.615 46.7222 142.4 43.2L142.718 42.7956C144.042 41.1172 145.419 39.5068 146.888 37.954C147.405 37.4108 147.405 37.4108 147.843 36.8274L148.2 36.4H148.6L148.762 36.0376C149 35.6004 149.219 35.3174 149.6 35H150V34.6C150.273 34.325 150.273 34.325 150.662 34C151.322 33.4416 151.958 32.8664 152.587 32.275C154.046 30.947 155.618 29.7762 157.2 28.6L157.64 28.2692C159.935 26.5474 162.308 25.02 164.8 23.6L165.341 23.2912C176.505 16.9636 189.069 13.6484 201.897 13.7106Z" fill="#075BC4"/>
<path d="M135.4 124.2C137.559 124.148 139.718 124.11 141.878 124.086C142.881 124.075 143.884 124.059 144.886 124.034C145.855 124.01 146.824 123.997 147.792 123.991C148.161 123.987 148.53 123.979 148.898 123.967C151.781 123.878 151.781 123.878 152.811 124.671C153.271 125.226 153.636 125.779 154 126.4C154.249 126.725 154.503 127.046 154.763 127.363L155.161 127.859C157.698 130.983 160.417 133.922 163.6 136.4L164.588 137.238C168.711 140.591 173.328 143.288 178.2 145.4L178.718 145.625C186.028 148.745 193.839 150.238 201.765 150.237C202.307 150.237 202.848 150.241 203.389 150.245C206.597 150.256 209.8 149.99 212.963 149.45L213.564 149.348C223.421 147.601 232.994 143.278 240.688 136.86C241.005 136.597 241.323 136.337 241.643 136.08C243.163 134.832 244.568 133.473 245.963 132.088L246.491 131.565C247.315 130.737 248.108 129.895 248.852 128.995L249.318 128.455C249.718 127.956 249.97 127.45 250.234 126.868C250.825 125.71 251.432 124.825 252.6 124.2C255.123 123.513 258 123.846 260.58 123.953C261.575 123.99 262.57 124.006 263.565 124.024C265.511 124.063 267.455 124.124 269.4 124.2C269.029 125.339 268.534 126.302 267.938 127.338L267.617 127.895C265.957 130.743 264.055 133.425 262 136L261.707 136.372C258.816 140.037 255.6 143.616 252 146.6C251.83 146.746 251.659 146.892 251.484 147.042C246.417 151.342 240.808 154.959 234.8 157.8L234.355 158.013C225.615 162.168 215.768 164.809 206.061 164.841L205.646 164.842C204.919 164.845 204.192 164.847 203.465 164.848C202.877 164.849 202.288 164.852 201.7 164.856C197.961 164.885 194.308 164.756 190.6 164.2L190.17 164.136C189.444 164.026 188.72 163.897 188 163.75L187.36 163.623C177.71 161.644 168.31 157.824 160.2 152.2L159.803 151.926C158.007 150.686 156.265 149.415 154.6 148L153.994 147.498C151.077 145.078 148.265 142.483 145.8 139.6L145.285 139.018C142.643 136.016 140.311 132.794 138.2 129.4L137.752 128.688C135.4 124.921 135.4 124.921 135.4 124.2Z" fill="#042F68"/>
<path d="M189.8 63.8C197.2 63.8 197.2 63.8 198.738 65.0188C199.054 65.564 199.342 66.1252 199.6 66.7C199.761 66.998 199.925 67.2945 200.092 67.5894C200.436 68.2032 200.768 68.8233 201.088 69.4492C201.753 70.717 202.548 71.8942 203.348 73.0802C204.177 74.3122 204.986 75.5574 205.8 76.8L206 63.8H213.4V89H206C203.83 86.5244 203.83 86.5244 203.273 85.307C202.467 83.6406 201.467 82.1278 200.435 80.594C199.412 79.0706 198.408 77.534 197.4 76L197.2 89H189.8V63.8Z" fill="white"/>
<path d="M241.4 63.8L249.25 63.7626L251.715 63.746C252.72 63.7432 252.72 63.7432 253.192 63.7428C253.518 63.7419 253.843 63.7399 254.168 63.7368C256.93 63.7118 259.566 63.7706 261.736 65.6984C263.204 67.2246 263.523 69.1024 263.494 71.1444C263.411 73.0726 262.842 74.5716 261.501 75.9836C260.565 76.762 259.497 77.28 258.4 77.8L258.73 77.971C261.18 79.399 262.383 82.21 263.588 84.6684C263.817 85.1323 264.047 85.5951 264.279 86.057C264.426 86.353 264.573 86.6491 264.72 86.9454L264.928 87.362C265.213 87.946 265.4 88.3412 265.4 89H256.8C255.527 86.7086 254.279 84.4252 253.097 82.0894L252.777 81.4648L252.498 80.9154C252.016 80.082 251.54 79.3132 250.6 79L249 78.8V89H241.4V63.8ZM249 69V73.8C252.29 74.0048 252.29 74.0048 255.2 72.8C255.675 72.0026 255.828 71.5866 255.688 70.6626C255.398 69.9966 255.166 69.646 254.6 69.2C253.964 68.988 253.515 68.977 252.848 68.9804L252.17 68.9824L251.463 68.9876L250.748 68.9902C250.165 68.9929 249.583 68.9961 249 69Z" fill="white"/>
<path d="M314.8 63.8L322.65 63.7626L325.115 63.746C326.12 63.7432 326.12 63.7432 326.592 63.7428C326.918 63.7419 327.243 63.7399 327.568 63.7368C330.33 63.7118 332.966 63.7706 335.136 65.6984C336.604 67.2246 336.923 69.1024 336.894 71.1444C336.811 73.0726 336.242 74.5716 334.901 75.9836C333.965 76.762 332.897 77.28 331.8 77.8L332.13 77.971C334.58 79.399 335.783 82.21 336.988 84.6684C337.217 85.1323 337.447 85.5951 337.679 86.057C337.826 86.353 337.973 86.6491 338.12 86.9454L338.328 87.362C338.613 87.946 338.8 88.3412 338.8 89H330.2C328.927 86.7086 327.679 84.4252 326.497 82.0894L326.177 81.4648L325.898 80.9154C325.416 80.082 324.94 79.3132 324 79L322.4 78.8V89H314.8V63.8ZM322.4 69V73.8C325.69 74.0048 325.69 74.0048 328.6 72.8C329.075 72.0026 329.228 71.5866 329.088 70.6626C328.798 69.9966 328.566 69.646 328 69.2C327.364 68.988 326.915 68.977 326.248 68.9804L325.57 68.9824L324.863 68.9876L324.148 68.9902C323.565 68.9929 322.983 68.9961 322.4 69Z" fill="white"/>
<path d="M11 63.8L17.95 63.7626L20.1302 63.746C21.0208 63.7432 21.0208 63.7432 21.44 63.7428C21.7277 63.7419 22.0155 63.7399 22.3032 63.7368C25.5046 63.7042 28.0758 64.1812 30.525 66.375C31.2662 67.157 31.7834 67.987 32.275 68.9376L32.47 69.3074C33.556 71.5566 33.7068 74.017 33.6876 76.475L33.6856 76.8854C33.6596 80.4644 33.0746 83.4606 30.55 86.175C25.6386 90.7546 16.483 89 11 89V63.8ZM18.8 69.8V83C22.118 83.103 22.118 83.103 24.75 81.6626C26.338 79.5414 26.176 76.5568 25.85 74.0626C25.616 72.6936 25.274 71.5752 24.225 70.625C22.434 69.407 21.1388 69.8 18.8 69.8Z" fill="white"/>
<path d="M103 65.4C105.139 67.013 106.469 69.029 107.2 71.6L107.307 71.9724C108.305 75.8524 107.859 80.5252 105.951 84.0508C104.306 86.6252 101.948 88.2568 99.014 89.0164C95.2876 89.8132 90.628 89.5484 87.3054 87.5648C84.4794 85.5248 82.946 82.7376 82.3374 79.3374C81.8226 75.2584 82.2442 71.0414 84.682 67.6046C88.7444 62.4346 97.7006 61.7754 103 65.4ZM91.3376 70.85C89.678 72.956 89.8488 75.86 90 78.4C90.2388 79.992 90.7646 81.265 91.9876 82.35C93.3704 83.366 94.729 83.3512 96.4 83.2C97.536 82.8896 98.4056 82.2254 99 81.2C99.6402 79.8264 99.9422 78.508 100 77L100.031 76.529C100.11 74.508 99.762 72.4016 98.5374 70.7546C98.0132 70.2036 97.4896 69.9182 96.8 69.6L96.4 69.4C94.3354 69.2348 92.794 69.3014 91.3376 70.85Z" fill="white"/>
<path d="M376.8 63.8H397.2V69.4H384.6V73H396.2V78.4H384.6V83H397.4V89H376.8V63.8ZM267 63.8H287.4V69.4H274.8V73H286.4V78.4H274.8V83H287.6V89H267V63.8Z" fill="white"/>
<path d="M166 63.8H186.4V69.4H173.8V73H185.4V78.4H173.8V83H186.6V89H166V63.8Z" fill="white"/>
<path d="M36.8 63.8H57.2V69.4H44.6V73H56.2V78.4H44.6V83H57.4V89H36.8V63.8Z" fill="white"/>
<path d="M362.938 63.3126L363.736 63.3064C366.524 63.331 369.123 63.8318 371.222 65.7656C372.471 67.201 372.988 68.9424 373.2 70.8C372.58 71.1102 371.912 71.072 371.23 71.107L370.761 71.133C370.265 71.1602 369.77 71.1867 369.275 71.2124L368.269 71.2676C367.446 71.3125 366.623 71.3567 365.8 71.4L365.686 71.0274L365.531 70.5374L365.38 70.0524C365.122 69.4044 364.739 69.0312 364.2 68.6C363.159 68.2532 362.084 68.282 361 68.4C360.293 68.7554 360.293 68.7554 360 69.4C360.011 70.1488 360.011 70.1488 360.2 70.8C361.621 71.419 363.029 71.8292 364.538 72.175C367.614 72.9186 370.931 73.7662 372.9 76.4626C374.083 78.4522 374.252 80.5746 373.775 82.8C373.153 85.0448 371.891 86.6598 369.924 87.9C367.71 89.094 365.429 89.3066 362.95 89.2876L362.537 89.2856C359.489 89.2656 356.441 89.0244 354.159 86.7626C352.549 84.8986 351.887 82.814 351.6 80.4C354.002 79.8626 356.551 79.973 359 80L359.147 80.446C359.753 82.2648 359.753 82.2648 361.139 83.5196C362.309 84.0158 363.827 84.0836 365.034 83.6406C365.564 83.2998 365.851 82.9238 366.2 82.4C366.266 81.5112 366.266 80.776 365.8 80C365.013 79.6334 364.178 79.3934 363.35 79.1376L362.929 79.0054C362.201 78.7774 361.469 78.5628 360.733 78.3618C357.828 77.5668 354.776 76.5558 353.2 73.7968C352.344 72.0988 352.328 70.0636 352.888 68.2626C353.732 66.218 355.364 64.8192 357.349 63.9632C359.182 63.3392 361.021 63.3202 362.938 63.3126Z" fill="white"/>
<path d="M136.2 63.8H144.8C146.883 69.4614 148.959 75.1256 151.027 80.7926C152.451 84.6926 152.451 84.6926 152.775 85.5838C152.927 86.0002 153.081 86.4158 153.237 86.8306L153.46 87.4266L153.659 87.9526C153.8 88.4 153.8 88.4 153.8 89H145.8C145.2 87.4 145.2 87.4 144.6 84.8H136.2L135.4 88L135 89H127.2C127.425 87.4252 127.425 87.4252 127.68 86.7414L127.854 86.269L128.045 85.7624L128.249 85.2126C128.473 84.608 128.699 84.004 128.925 83.4C129.166 82.7507 129.407 82.1011 129.648 81.4514C129.82 80.9869 129.992 80.5223 130.165 80.0578C130.916 78.0298 131.661 75.9993 132.399 73.9664C132.864 72.6884 133.329 71.4103 133.794 70.1322C134.037 69.4629 134.281 68.7936 134.525 68.1244L134.923 67.0294L135.167 66.36L135.377 65.7808C135.633 65.1132 135.918 64.4572 136.2 63.8ZM140.2 71C139.885 72.0388 139.572 73.078 139.26 74.1176C139.154 74.4712 139.047 74.8247 138.94 75.178C138.786 75.686 138.633 76.1944 138.481 76.7032L138.335 77.1812C138.125 77.8892 138 78.4552 138 79.2H143L142.014 75.7998C141.55 74.1978 141.084 72.5962 140.6 71H140.2Z" fill="white"/>
<path d="M290.8 63.8L298.175 63.7626L300.493 63.746C301.436 63.7432 301.436 63.7432 301.879 63.7428C302.185 63.7419 302.491 63.7399 302.796 63.7368C305.362 63.7122 307.566 63.8744 309.6 65.6C311.375 67.4724 311.682 69.6964 311.643 72.1828C311.56 74.3978 310.751 76.1288 309.163 77.65C306.233 80.0918 302.191 79.6 298.6 79.6V89H290.8V63.8ZM298.6 69V74.4L300.225 74.3376L300.73 74.3224C301.918 74.2642 302.758 73.9834 303.675 73.1874C304.153 72.3236 304.202 71.5638 304 70.6C303.543 69.805 303.075 69.2916 302.2 69C301.918 68.9844 301.636 68.9779 301.354 68.9804L300.915 68.982L300.363 68.9874L298.6 69Z" fill="white"/>
<path d="M110.8 63.8H129.6V69.4H118.6V73.6H128V78.8H118.6V89H110.8V63.8Z" fill="white"/>
<path d="M215.6 63.8H238.8V70.2H231V89H223.4V70.2H215.6V63.8Z" fill="white"/>
<path d="M58.8 63.8H82V70.2H74.2V89H66.6V70.2H58.8V63.8ZM340.6 63.8H348.4V89H340.6V63.8Z" fill="white"/>
<path d="M199.6 103.2L202.825 103.163L203.836 103.146C204.104 103.144 204.371 103.143 204.639 103.141L205.052 103.132C205.984 103.132 206.61 103.308 207.4 103.8C208.102 104.635 208.362 105.311 208.4 106.4C208.209 107.508 207.872 108.09 207 108.8C206.438 109.063 206.438 109.063 206 109.2L206.243 109.445C207.108 110.368 209.2 112.651 209.2 114C208.241 114.12 207.355 114.168 206.4 114C205.735 113.444 205.396 112.762 205 112C204.782 111.633 204.557 111.27 204.325 110.913L204.033 110.426C203.471 109.81 203.471 109.81 201.8 109.4V114H199.6V103.2ZM201.8 105V107.6C202.279 107.616 202.758 107.628 203.238 107.638L203.646 107.653C204.539 107.666 205.094 107.555 205.8 107C206.067 106.533 206.067 106.533 206 106C205.603 105.472 205.288 105.061 204.618 104.92C204.187 104.902 203.768 104.913 203.338 104.938L202.889 104.951C202.526 104.963 202.163 104.981 201.8 105ZM143.6 103.2L146.825 103.163L147.836 103.146C148.104 103.144 148.371 103.143 148.639 103.141L149.052 103.132C149.984 103.132 150.61 103.308 151.4 103.8C152.102 104.635 152.362 105.311 152.4 106.4C152.209 107.508 151.872 108.09 151 108.8C150.438 109.063 150.438 109.063 150 109.2L150.243 109.445C151.108 110.368 153.2 112.651 153.2 114C152.241 114.12 151.355 114.168 150.4 114C149.735 113.444 149.396 112.762 149 112C148.782 111.633 148.557 111.27 148.325 110.913L148.033 110.426C147.471 109.81 147.471 109.81 145.8 109.4V114H143.6V103.2ZM145.8 105V107.6C146.279 107.616 146.758 107.628 147.238 107.638L147.646 107.653C148.539 107.666 149.094 107.555 149.8 107C150.067 106.533 150.067 106.533 150 106C149.603 105.472 149.288 105.061 148.618 104.92C148.187 104.902 147.768 104.913 147.338 104.938L146.889 104.951C146.526 104.963 146.163 104.981 145.8 105ZM251.2 103.2H253.6L254.076 104.041L254.713 105.163L255.024 105.714L255.338 106.266L255.621 106.765C256.193 107.723 256.801 108.659 257.4 109.6L257.6 103.2H259.6V114C257.2 114 257.2 114 256.619 113.471C256.415 113.121 256.415 113.121 256.229 112.738L256.012 112.35C255.787 111.941 255.575 111.528 255.363 111.112C255.212 110.834 255.061 110.556 254.909 110.279C254.633 109.774 254.362 109.266 254.097 108.755C253.852 108.233 253.852 108.233 253.6 108L253.4 114H251.2V103.2ZM270.8 103.2L273.6 103.15L274.473 103.128C275.945 103.115 276.968 103.166 278.2 104C279.519 105.437 279.781 107.095 279.8 109C279.632 110.796 279.203 112.193 277.8 113.4C276.901 113.935 276.255 114.072 275.214 114.059L274.509 114.054L273.625 114.038L270.8 114V103.2ZM273 105V112.2C275.061 112.319 275.061 112.319 276.738 111.575C277.518 110.461 277.531 108.908 277.4 107.6C277.22 106.748 277.026 106.033 276.413 105.4C275.244 104.833 274.388 105 273 105ZM219.2 103.2L222 103.15L222.873 103.128C224.345 103.115 225.368 103.166 226.6 104C227.919 105.437 228.181 107.095 228.2 109C228.032 110.796 227.603 112.193 226.2 113.4C225.301 113.935 224.655 114.072 223.614 114.059L222.909 114.054L222.025 114.038L219.2 114V103.2ZM221.4 105V112.2C223.461 112.319 223.461 112.319 225.138 111.575C225.918 110.461 225.931 108.908 225.8 107.6C225.62 106.748 225.426 106.033 224.813 105.4C223.644 104.833 222.788 105 221.4 105Z" fill="#0866DD"/>
<path d="M192.538 103.338C193.174 103.735 193.625 104.139 194 104.8C194.118 105.341 194.162 105.845 194.2 106.4H191.8L191.4 105.4C190.78 104.939 190.297 104.977 189.55 105.075L189.009 105.142L188.6 105.2C188.533 105.675 188.533 105.675 188.6 106.2C189.305 106.976 190.418 107.134 191.396 107.404C192.495 107.723 193.425 108.135 194.162 109.05C194.61 110.087 194.729 110.971 194.375 112.038C193.967 112.978 193.428 113.622 192.465 114.022C191.017 114.41 189.032 114.507 187.65 113.862C186.477 113.028 186.121 112.34 185.859 110.959L185.8 110.6C186.35 110.417 186.672 110.378 187.238 110.388L188 110.4L188.338 111.075C188.62 111.561 188.775 111.783 189.25 112.1C190.138 112.261 191.012 112.243 191.8 111.75C192.065 111.287 192.014 110.925 192 110.4L191.596 110.253C191.207 110.112 190.819 109.969 190.431 109.826C190.026 109.68 189.618 109.544 189.206 109.418C187.932 109.014 187.107 108.564 186.4 107.4C186.089 106.467 186.091 105.702 186.425 104.775C187.712 102.801 190.429 102.347 192.538 103.338ZM130.938 103.338C131.574 103.735 132.025 104.139 132.4 104.8C132.518 105.341 132.562 105.845 132.6 106.4H130.2L129.8 105.4C129.18 104.939 128.697 104.977 127.95 105.075L127.409 105.142L127 105.2C126.933 105.675 126.933 105.675 127 106.2C127.705 106.976 128.818 107.134 129.796 107.404C130.895 107.723 131.825 108.135 132.562 109.05C133.01 110.087 133.129 110.971 132.775 112.038C132.367 112.978 131.828 113.622 130.865 114.022C129.417 114.41 127.432 114.507 126.05 113.862C124.877 113.028 124.521 112.34 124.259 110.959L124.2 110.6C124.75 110.417 125.072 110.378 125.638 110.388L126.4 110.4L126.738 111.075C127.02 111.561 127.175 111.783 127.65 112.1C128.538 112.261 129.412 112.243 130.2 111.75C130.465 111.287 130.414 110.925 130.4 110.4L129.996 110.253C129.607 110.112 129.219 109.969 128.831 109.826C128.426 109.68 128.018 109.544 127.606 109.418C126.332 109.014 125.507 108.564 124.8 107.4C124.489 106.467 124.491 105.702 124.825 104.775C126.112 102.801 128.829 102.347 130.938 103.338Z" fill="#0866DE"/>
<path d="M261.4 103.2H269.4V105H263.6V107.4H269V109.2H263.6V112.2H269.6V114H261.4V103.2ZM229.4 103.2H237.4V105H231.6V107.4H237V109.2H231.6V112.2H237.6V114H229.4V103.2ZM209.8 103.2H217.8V105H212V107.4H217.4V109.2H212V112.2H218V114H209.8V103.2ZM177 103.2H185V105H179.2V107.4H184.6V109.2H179.2V112.2H185.2V114H177V103.2ZM134.2 103.2H142.2V105H136.4V107.4H141.8V109.2H136.4V112.2H142.4V114H134.2V103.2Z" fill="#0767DE"/>
<path d="M173.7 103.288C174.575 103.814 175.207 104.666 175.6 105.6L175.4 106.4L173.4 106.6L173.05 106.025C172.557 105.301 172.557 105.301 171.8 105C170.986 104.988 170.388 105.061 169.725 105.55C168.759 106.888 168.865 108.424 169 110C169.224 110.833 169.528 111.416 170.263 111.913C170.973 112.028 171.501 111.978 172.2 111.8C172.867 111.296 173.138 110.786 173.4 110C174.886 110.2 174.886 110.2 175.6 110.4C175.482 111.64 175.024 112.409 174.113 113.25C172.76 114.174 171.393 114.143 169.8 114C168.554 113.672 167.685 112.871 167 111.8C166.165 110.218 166.141 108.278 166.552 106.566C167.036 105.151 167.567 104.209 168.875 103.438C170.355 102.746 172.174 102.656 173.7 103.288ZM152.6 103.2H155L155.217 103.839C155.482 104.62 155.748 105.4 156.014 106.18L156.36 107.194C156.524 107.679 156.69 108.164 156.856 108.649L157.012 109.11C157.209 109.809 157.209 109.809 157.6 110.4L157.799 109.761C158.042 108.98 158.285 108.2 158.529 107.42C158.635 107.082 158.74 106.744 158.845 106.406C158.996 105.921 159.147 105.436 159.299 104.951L159.442 104.49C159.777 103.423 159.777 103.423 160 103.2C160.404 103.186 160.808 103.183 161.213 103.188L161.882 103.193L162.4 103.2C162.023 104.65 161.584 106.083 161.085 107.496L160.886 108.065C160.679 108.656 160.471 109.247 160.263 109.837C160.121 110.242 159.979 110.646 159.837 111.05C159.492 112.034 159.146 113.017 158.8 114H156.2C155.666 112.688 155.167 111.372 154.709 110.032L154.524 109.493C154.397 109.122 154.27 108.75 154.143 108.379C153.949 107.809 153.753 107.239 153.556 106.67L153.184 105.582C153.126 105.412 153.067 105.242 153.006 105.067C152.953 104.909 152.899 104.752 152.844 104.589L152.701 104.17C152.6 103.8 152.6 103.8 152.6 103.2Z" fill="#0866DE"/>
<path d="M238.8 103.2H246.2V105H241V107.6H245.4V109.4H241V114H238.8V103.2Z" fill="#0766DD"/>
<path d="M247.4 103.2H249.6V114H247.4V103.2ZM163 103.2H165.2V114H163V103.2Z" fill="#0866DE"/>
</svg>
