<?xml version="1.0" encoding="UTF-8"?>
<svg version="1.1" xmlns="http://www.w3.org/2000/svg" width="2069" height="895">
<path d="M0 0 C2.04624459 0.00948689 4.09246361 0.01432231 6.13872528 0.01854706 C26.49499511 0.07525272 46.44673884 0.68977688 66.51256561 4.44683075 C68.34416229 4.78424286 68.34416229 4.78424286 70.21276093 5.12847137 C85.54770253 8.03151378 100.61664975 11.79876947 115.51256561 16.44683075 C116.77278534 16.834758 116.77278534 16.834758 118.05846405 17.23052216 C137.48773758 23.26296846 156.51760366 30.83653489 174.50035858 40.38091278 C175.89365256 41.11897654 177.29145276 41.84857254 178.69274139 42.57134247 C199.06568211 53.09410738 218.74880254 65.92963953 236.51256561 80.44683075 C237.43166718 81.17644012 238.35076874 81.9060495 239.29772186 82.65776825 C245.34040362 87.50211227 251.06731116 92.62611633 256.73912811 97.89214325 C258.98333596 99.95934316 261.2544242 101.96718154 263.57506561 103.94683075 C271.49719906 110.82918418 278.72780087 118.45344395 285.51256561 126.44683075 C286.42567135 127.49714246 287.33982736 128.54654157 288.25475311 129.59526825 C338.51256561 187.37874931 338.51256561 187.37874931 338.51256561 205.44683075 C327.78620362 205.84246162 317.06160158 206.14361812 306.32940388 206.32763767 C301.34428096 206.41601301 296.36418105 206.53560449 291.38195038 206.72930145 C286.56389485 206.91542159 281.75063315 207.01592419 276.92925835 207.05974388 C275.0999086 207.09091962 273.27079329 207.15181679 271.44351387 207.24424171 C257.54228042 207.91875513 257.54228042 207.91875513 252.48158646 203.78976822 C248.66554398 199.73217783 245.66373882 195.22890455 242.7829113 190.47823143 C241.03897588 187.68951681 239.05085965 185.22581724 236.95006561 182.69683075 C235.89045624 181.41872528 235.89045624 181.41872528 234.80944061 180.1147995 C224.20379995 167.79566247 213.0085914 155.73123902 200.24303436 145.6304245 C198.46162147 144.20580389 196.71169525 142.74062002 195.00084686 141.231987 C180.19683771 128.24335999 162.94944676 117.54513472 145.51256561 108.44683075 C144.89075409 108.11811981 144.26894257 107.78940887 143.62828827 107.450737 C108.96580949 89.21946138 71.48943829 78.21187783 32.51256561 74.44683075 C31.60087616 74.35256805 30.68918671 74.25830536 29.7498703 74.16118622 C21.01042963 73.33006214 12.28365489 73.20471154 3.51256561 73.19683075 C2.72798981 73.19582367 1.943414 73.19481659 1.13506317 73.19377899 C-29.07467339 73.21976981 -58.56428013 77.7748399 -87.48743439 86.44683075 C-88.66233429 86.79850311 -88.66233429 86.79850311 -89.86096954 87.15727997 C-146.2504992 104.33723342 -196.6852655 139.69055648 -233.86243439 185.19683075 C-234.63804718 186.14320404 -234.63804718 186.14320404 -235.42932892 187.10869598 C-235.9512381 187.75137421 -236.47314728 188.39405243 -237.01087189 189.05620575 C-237.54464951 189.69292709 -238.07842712 190.32964844 -238.62837982 190.98566437 C-240.58679803 193.45040611 -240.58679803 193.45040611 -242.1187973 196.45940399 C-246.89070943 204.5418918 -246.89070943 204.5418918 -251.41251373 206.1177063 C-257.1441896 207.15432754 -262.94819059 206.8231115 -268.74134064 206.61870575 C-270.61172264 206.5962956 -272.48217558 206.57922756 -274.3526535 206.56725311 C-279.25199105 206.52165242 -284.14698971 206.4039927 -289.04462433 206.27080536 C-294.0516566 206.14755909 -299.05939736 206.09313994 -304.06751251 206.03276825 C-313.87604919 205.90446077 -323.68137965 205.69994207 -333.48743439 205.44683075 C-325.23020997 184.44234984 -311.41040543 165.05806547 -297.48743439 147.44683075 C-296.96294708 146.77957977 -296.43845978 146.1123288 -295.89807892 145.42485809 C-289.27608917 137.03249559 -282.39385411 128.981095 -275.04602814 121.216362 C-272.46252644 118.50073873 -272.46252644 118.50073873 -270.27259064 115.5835495 C-269.68348907 114.87843231 -269.09438751 114.17331512 -268.48743439 113.44683075 C-267.82743439 113.44683075 -267.16743439 113.44683075 -266.48743439 113.44683075 C-266.08524689 112.54964325 -266.08524689 112.54964325 -265.67493439 111.63433075 C-264.48826032 109.44835221 -263.39144326 108.03350481 -261.48743439 106.44683075 C-260.82743439 106.44683075 -260.16743439 106.44683075 -259.48743439 106.44683075 C-259.48743439 105.78683075 -259.48743439 105.12683075 -259.48743439 104.44683075 C-258.12415314 103.07183075 -258.12415314 103.07183075 -256.17493439 101.44683075 C-252.87756466 98.65498112 -249.6997418 95.7789894 -246.54993439 92.82183075 C-239.25740633 86.18221499 -231.39505119 80.3279068 -223.48743439 74.44683075 C-222.39785431 73.6279538 -222.39785431 73.6279538 -221.28626251 72.79253387 C-209.81150659 64.18390789 -197.9485564 56.54828058 -185.48743439 49.44683075 C-184.14842072 48.68257782 -184.14842072 48.68257782 -182.78235626 47.90288544 C-126.96432593 16.26473391 -64.14395968 -0.31138442 0 0 Z " fill="#075BC4" transform="translate(1009.487434387207,68.55316925048828)"/>
<path d="M0 0 C10.79624089 -0.25544726 21.59175738 -0.45060653 32.39041042 -0.56993389 C37.40548755 -0.62722257 42.41849005 -0.70484774 47.43237305 -0.82983398 C52.27605953 -0.94981478 57.11775797 -1.01521728 61.96281624 -1.04364967 C63.80618652 -1.06389563 65.649454 -1.10343677 67.49197197 -1.16303062 C81.90724881 -1.6105108 81.90724881 -1.6105108 87.05740356 2.35287476 C89.35363631 5.13149247 91.17970743 7.89525647 93 11 C94.24604162 12.6234988 95.51343859 14.23110584 96.8125 15.8125 C97.79863281 17.04226563 97.79863281 17.04226563 98.8046875 18.296875 C111.489435 33.91581676 125.08695042 48.61215017 141 61 C142.64619979 62.39540112 144.29201609 63.79125477 145.9375 65.1875 C166.55479902 81.95545889 189.64143386 95.43816446 214 106 C214.85432617 106.3707666 215.70865234 106.7415332 216.58886719 107.12353516 C253.13934741 122.72629563 292.19680271 130.18884584 331.82641602 130.18530273 C334.53352904 130.18747673 337.24022487 130.20566526 339.94726562 130.22460938 C356.04648771 130.27709302 371.93423584 128.95136515 387.8125 126.25 C388.80548096 126.08153564 389.79846191 125.91307129 390.8215332 125.73950195 C440.1067602 117.00457382 487.96964513 95.38810646 526.44189453 63.29785156 C528.02084239 61.98263896 529.61708247 60.69069489 531.21484375 59.3984375 C538.81376132 53.15714847 545.83882364 46.36536523 552.8125 39.4375 C553.68398682 38.57527832 554.55547363 37.71305664 555.45336914 36.82470703 C559.57432845 32.68375258 563.53841425 28.47619627 567.26171875 23.97265625 C568.41522827 22.63642212 568.41522827 22.63642212 569.59204102 21.27319336 C571.59178897 18.77925106 572.85044213 16.24917357 574.16772461 13.34204102 C577.12593521 7.55235597 580.16130911 3.12432347 586 0 C598.61507231 -3.43280201 612.99809577 -1.76830051 625.9005127 -1.23596191 C630.87370745 -1.05043912 635.84854735 -0.96933132 640.82421875 -0.87890625 C650.55382049 -0.6869476 660.27607493 -0.38058021 670 0 C668.14567243 5.69504561 665.66870862 10.51056229 662.6875 15.6875 C662.15914551 16.60724609 661.63079102 17.52699219 661.08642578 18.47460938 C652.78686425 32.71637388 643.27721668 46.12320752 633 59 C632.51595703 59.61407715 632.03191406 60.2281543 631.53320312 60.86083984 C617.0793878 79.18328354 600.99981874 97.0767711 583 112 C582.14792969 112.72960937 581.29585937 113.45921875 580.41796875 114.2109375 C555.09865465 135.70015456 527.02131469 153.80398428 497 168 C496.26555664 168.35126953 495.53111328 168.70253906 494.77441406 169.06445312 C451.07566088 189.84197351 401.83798882 203.04448381 353.3046875 203.203125 C352.61999516 203.20595238 351.93530281 203.20877975 351.22986221 203.21169281 C347.59480679 203.22657644 343.95978982 203.23586987 340.32470703 203.24023438 C337.38317227 203.24458528 334.4419364 203.25835999 331.50048828 203.28125 C312.80260017 203.42369491 294.53849171 202.78229595 276 200 C275.29083435 199.89522339 274.5816687 199.79044678 273.85101318 199.68249512 C270.21318144 199.1317552 266.6058092 198.47998725 263 197.75 C261.94425781 197.54020508 260.88851563 197.33041016 259.80078125 197.11425781 C211.54941866 187.22130093 164.5498968 168.11927331 124 140 C123.34499512 139.54866699 122.68999023 139.09733398 122.01513672 138.63232422 C113.03257374 132.4318805 104.32275963 126.07434568 96 119 C94.9996875 118.17242188 93.999375 117.34484375 92.96875 116.4921875 C78.38270274 104.38853891 64.32507769 91.41572203 52 77 C51.15050781 76.03964844 50.30101562 75.07929687 49.42578125 74.08984375 C36.21492792 59.07751042 24.55654369 42.96927594 14 26 C13.25289094 24.81362144 12.50550702 23.62741592 11.7578125 22.44140625 C0 3.6067217 0 3.6067217 0 0 Z " fill="#042F68" transform="translate(677,621)"/>
<path d="M0 0 C37 0 37 0 44.6875 6.09375 C46.31982977 8.917485 47.6695837 11.555362 49 14.5 C49.80591648 15.99030588 50.62677938 17.47261368 51.46142578 18.94702148 C53.18368625 22.01796341 54.83306259 25.11412258 56.44238281 28.24560547 C59.76704128 34.58497454 63.74212502 40.4710154 67.73779297 46.40063477 C71.88371542 52.56144326 75.93241955 58.78718876 80 65 C80.33 43.55 80.66 22.1 81 0 C93.21 0 105.42 0 118 0 C118 41.58 118 83.16 118 126 C105.79 126 93.58 126 81 126 C70.15213853 113.62231191 70.15213853 113.62231191 67.3671875 107.53515625 C63.33717286 99.20268666 58.33555076 91.63937122 53.17626953 83.97045898 C48.05849404 76.35296079 43.03927018 68.66965846 38 61 C37.67 82.45 37.34 103.9 37 126 C24.79 126 12.58 126 0 126 C0 84.42 0 42.84 0 0 Z " fill="#002D4F" transform="translate(949,319)"/>
<path d="M0 0 C12.9525 -0.061875 25.905 -0.12375 39.25 -0.1875 C43.31731445 -0.21481201 47.38462891 -0.24212402 51.57519531 -0.27026367 C56.59912109 -0.28381348 56.59912109 -0.28381348 58.96209717 -0.28633118 C60.58826166 -0.29089316 62.21441695 -0.3013498 63.84051514 -0.31672668 C77.64912973 -0.44060839 90.82931995 -0.14697623 101.6796875 9.4921875 C109.01856508 17.12315971 110.61408157 26.51253528 110.46826172 36.72216797 C110.05657313 46.36344055 107.20810557 53.85756908 100.50390625 60.91796875 C95.82307338 64.81014335 90.48439583 67.39992819 85 70 C85.81791016 70.42345703 85.81791016 70.42345703 86.65234375 70.85546875 C98.90067502 77.99509433 104.915386 92.04978103 110.94213867 104.34228516 C112.08113529 106.66296905 113.23766537 108.97431625 114.39648438 111.28515625 C115.1312311 112.76511768 115.86499381 114.24556813 116.59765625 115.7265625 C116.94127701 116.41400543 117.28489777 117.10144836 117.63893127 117.8097229 C119.06311784 120.73089142 120 122.7058628 120 126 C105.81 126 91.62 126 77 126 C70.63520172 114.5433631 64.39742235 103.12553414 58.484375 91.44726562 C57.95585938 90.41666016 57.42734375 89.38605469 56.8828125 88.32421875 C56.42277832 87.41760498 55.96274414 86.51099121 55.48876953 85.5769043 C53.0815811 81.41031298 50.6979411 77.56598037 46 76 C43.36 75.67 40.72 75.34 38 75 C38 91.83 38 108.66 38 126 C25.46 126 12.92 126 0 126 C0 84.42 0 42.84 0 0 Z M38 26 C38 33.92 38 41.84 38 50 C54.44773679 51.02442445 54.44773679 51.02442445 69 45 C71.3770815 41.01263748 72.14226154 38.93260341 71.4375 34.3125 C69.99228417 30.98222005 68.83019865 29.22985348 66 27 C62.82212459 25.9407082 60.57411057 25.88541061 57.23828125 25.90234375 C55.56088867 25.90717773 55.56088867 25.90717773 53.84960938 25.91210938 C52.68236328 25.92048828 51.51511719 25.92886719 50.3125 25.9375 C49.13365234 25.94201172 47.95480469 25.94652344 46.74023438 25.95117188 C43.82680133 25.96296715 40.91339433 25.98090273 38 26 Z " fill="#02264D" transform="translate(1207,319)"/>
<path d="M0 0 C12.9525 -0.061875 25.905 -0.12375 39.25 -0.1875 C43.31731445 -0.21481201 47.38462891 -0.24212402 51.57519531 -0.27026367 C56.59912109 -0.28381348 56.59912109 -0.28381348 58.96209717 -0.28633118 C60.58826166 -0.29089316 62.21441695 -0.3013498 63.84051514 -0.31672668 C77.64912973 -0.44060839 90.82931995 -0.14697623 101.6796875 9.4921875 C109.01856508 17.12315971 110.61408157 26.51253528 110.46826172 36.72216797 C110.05657313 46.36344055 107.20810557 53.85756908 100.50390625 60.91796875 C95.82307338 64.81014335 90.48439583 67.39992819 85 70 C85.81791016 70.42345703 85.81791016 70.42345703 86.65234375 70.85546875 C98.90067502 77.99509433 104.915386 92.04978103 110.94213867 104.34228516 C112.08113529 106.66296905 113.23766537 108.97431625 114.39648438 111.28515625 C115.1312311 112.76511768 115.86499381 114.24556813 116.59765625 115.7265625 C116.94127701 116.41400543 117.28489777 117.10144836 117.63893127 117.8097229 C119.06311784 120.73089142 120 122.7058628 120 126 C105.81 126 91.62 126 77 126 C70.63520172 114.5433631 64.39742235 103.12553414 58.484375 91.44726562 C57.95585938 90.41666016 57.42734375 89.38605469 56.8828125 88.32421875 C56.42277832 87.41760498 55.96274414 86.51099121 55.48876953 85.5769043 C53.0815811 81.41031298 50.6979411 77.56598037 46 76 C43.36 75.67 40.72 75.34 38 75 C38 91.83 38 108.66 38 126 C25.46 126 12.92 126 0 126 C0 84.42 0 42.84 0 0 Z M38 26 C38 33.92 38 41.84 38 50 C54.44773679 51.02442445 54.44773679 51.02442445 69 45 C71.3770815 41.01263748 72.14226154 38.93260341 71.4375 34.3125 C69.99228417 30.98222005 68.83019865 29.22985348 66 27 C62.82212459 25.9407082 60.57411057 25.88541061 57.23828125 25.90234375 C55.56088867 25.90717773 55.56088867 25.90717773 53.84960938 25.91210938 C52.68236328 25.92048828 51.51511719 25.92886719 50.3125 25.9375 C49.13365234 25.94201172 47.95480469 25.94652344 46.74023438 25.95117188 C43.82680133 25.96296715 40.91339433 25.98090273 38 26 Z " fill="#02224C" transform="translate(1574,319)"/>
<path d="M0 0 C11.4675 -0.061875 22.935 -0.12375 34.75 -0.1875 C38.34745117 -0.21481201 41.94490234 -0.24212402 45.65136719 -0.27026367 C50.10400391 -0.28381348 50.10400391 -0.28381348 52.20001221 -0.28633118 C53.63868 -0.29088525 55.07733762 -0.30132464 56.51593018 -0.31672668 C72.52292854 -0.47927357 85.37858634 1.90556281 97.625 12.875 C101.33114975 16.78485657 103.91715705 20.93536532 106.375 25.6875 C106.69678223 26.29770996 107.01856445 26.90791992 107.35009766 27.53662109 C112.77967096 38.78338928 113.53439522 51.08456559 113.4375 63.375 C113.43412628 64.052211 113.43075256 64.729422 113.42727661 65.42715454 C113.29827601 83.32236025 110.37319378 98.30337305 97.75 111.875 C73.19320534 134.77255177 27.41513866 126 0 126 C0 84.42 0 42.84 0 0 Z M39 30 C39 51.78 39 73.56 39 96 C55.59090762 96.51484678 55.59090762 96.51484678 68.75 89.3125 C76.69088028 78.70724542 75.87923112 63.78404794 74.25 51.3125 C73.08087945 44.46827346 71.36999183 38.8756994 66.125 34.125 C57.1700476 28.03563237 50.69398211 30 39 30 Z " fill="#02224D" transform="translate(55,319)"/>
<path d="M0 0 C10.6952852 8.0647806 17.34434756 18.14457767 21 31 C21.26490234 31.92171997 21.26490234 31.92171997 21.53515625 32.86206055 C26.52487053 52.26180235 24.2973917 75.62596445 14.75390625 93.25390625 C6.53246553 106.12622881 -5.25860311 114.28325319 -19.9296875 118.08203125 C-38.56186179 122.06625768 -61.85931043 120.74226129 -78.47265625 110.82421875 C-92.60322745 100.62487292 -100.26983427 86.68812881 -103.3125 69.6875 C-105.88669286 49.29197197 -103.77931471 28.20655941 -91.58984375 11.0234375 C-71.27825336 -14.82767755 -26.49726045 -18.12331707 0 0 Z M-58.3125 27.25 C-66.61044986 37.78027877 -65.75646761 52.30027469 -65 65 C-63.806327 72.96074568 -61.17694366 79.32539101 -55.0625 84.75 C-48.14798312 89.83005322 -41.35518187 89.75612506 -33 89 C-27.31948561 87.44756128 -22.972171 84.12699498 -20 79 C-16.79866998 72.13228188 -15.28863137 65.54049448 -15 58 C-14.9484375 57.22269531 -14.896875 56.44539063 -14.84375 55.64453125 C-14.44812258 45.53954764 -16.19005638 35.00812417 -22.3125 26.7734375 C-24.93428853 24.01813196 -27.5519198 22.59142163 -31 21 C-31.66 20.67 -32.32 20.34 -33 20 C-43.32310971 19.17360933 -51.03064958 19.50749724 -58.3125 27.25 Z " fill="#02224C" transform="translate(515,327)"/>
<path d="M0 0 C33.66 0 67.32 0 102 0 C102 9.24 102 18.48 102 28 C81.21 28 60.42 28 39 28 C39 33.94 39 39.88 39 46 C58.14 46 77.28 46 97 46 C97 54.91 97 63.82 97 73 C77.86 73 58.72 73 39 73 C39 80.59 39 88.18 39 96 C60.12 96 81.24 96 103 96 C103 105.9 103 115.8 103 126 C69.01 126 35.02 126 0 126 C0 84.42 0 42.84 0 0 Z " fill="#02224D" transform="translate(1884,319)"/>
<path d="M0 0 C33.66 0 67.32 0 102 0 C102 9.24 102 18.48 102 28 C81.21 28 60.42 28 39 28 C39 33.94 39 39.88 39 46 C58.14 46 77.28 46 97 46 C97 54.91 97 63.82 97 73 C77.86 73 58.72 73 39 73 C39 80.59 39 88.18 39 96 C60.12 96 81.24 96 103 96 C103 105.9 103 115.8 103 126 C69.01 126 35.02 126 0 126 C0 84.42 0 42.84 0 0 Z " fill="#02224D" transform="translate(1335,319)"/>
<path d="M0 0 C33.66 0 67.32 0 102 0 C102 9.24 102 18.48 102 28 C81.21 28 60.42 28 39 28 C39 33.94 39 39.88 39 46 C58.14 46 77.28 46 97 46 C97 54.91 97 63.82 97 73 C77.86 73 58.72 73 39 73 C39 80.59 39 88.18 39 96 C60.12 96 81.24 96 103 96 C103 105.9 103 115.8 103 126 C69.01 126 35.02 126 0 126 C0 84.42 0 42.84 0 0 Z " fill="#002A4F" transform="translate(830,319)"/>
<path d="M0 0 C33.66 0 67.32 0 102 0 C102 9.24 102 18.48 102 28 C81.21 28 60.42 28 39 28 C39 33.94 39 39.88 39 46 C58.14 46 77.28 46 97 46 C97 54.91 97 63.82 97 73 C77.86 73 58.72 73 39 73 C39 80.59 39 88.18 39 96 C60.12 96 81.24 96 103 96 C103 105.9 103 115.8 103 126 C69.01 126 35.02 126 0 126 C0 84.42 0 42.84 0 0 Z " fill="#02224D" transform="translate(184,319)"/>
<path d="M0 0 C1.31814697 -0.0100708 2.63629395 -0.0201416 3.99438477 -0.03051758 C17.93134737 0.09274101 30.92674661 2.59688468 41.421875 12.265625 C47.66909176 19.44217979 50.25201444 28.14910926 51.3125 37.4375 C48.21034033 38.98857983 44.87399037 38.79828313 41.4609375 38.97265625 C40.68690582 39.01563339 39.91287415 39.05861053 39.11538696 39.10289001 C36.63963056 39.23939832 34.16359371 39.36976764 31.6875 39.5 C30.01039462 39.59139318 28.33331091 39.68318503 26.65625 39.77539062 C22.54190402 40.00072292 18.42729612 40.22054951 14.3125 40.4375 C14.03116211 39.51517578 14.03116211 39.51517578 13.74414062 38.57421875 C13.48826172 37.76597656 13.23238281 36.95773437 12.96875 36.125 C12.59459961 34.92423828 12.59459961 34.92423828 12.21289062 33.69921875 C10.92290006 30.45885199 9.00736667 28.59339334 6.3125 26.4375 C1.1098839 24.70329463 -4.26806832 24.84813681 -9.6875 25.4375 C-13.22081024 27.21491287 -13.22081024 27.21491287 -14.6875 30.4375 C-14.63021002 34.18110341 -14.63021002 34.18110341 -13.6875 37.4375 C-6.58154391 40.53299001 0.45728056 42.58377057 8 44.3125 C23.38475732 48.03049284 39.96628847 52.26863458 49.8125 65.75 C55.72692803 75.69854657 56.57474888 86.31121503 54.1875 97.4375 C51.07921241 108.66187186 44.76869597 116.73605624 34.93359375 122.9375 C23.86433598 128.90743677 12.45642844 129.97071774 0.0625 129.875 C-0.95981216 129.87043793 -0.95981216 129.87043793 -2.0027771 129.86578369 C-17.24432223 129.76515286 -32.48425587 128.55929949 -43.89453125 117.25 C-51.94534173 107.92958119 -55.25369192 97.50716799 -56.6875 85.4375 C-44.67583559 82.75068033 -31.9340521 83.30259306 -19.6875 83.4375 C-19.44515625 84.17355469 -19.2028125 84.90960938 -18.953125 85.66796875 C-15.92401679 94.76192989 -15.92401679 94.76192989 -8.9921875 101.03515625 C-3.14367182 103.51697319 4.4493398 103.85491849 10.484375 101.640625 C13.13183802 99.93681217 14.56633598 98.05674604 16.3125 95.4375 C16.64172132 90.99301217 16.64055587 87.31759311 14.3125 83.4375 C10.37867084 81.60411907 6.20307274 80.40473935 2.0625 79.125 C1.36721191 78.9069873 0.67192383 78.68897461 -0.04443359 78.46435547 C-3.68903312 77.3299545 -7.33952342 76.24587034 -11.0234375 75.24609375 C-25.5474342 71.27120935 -40.80513928 66.21600625 -48.6875 52.421875 C-52.96650793 43.93071865 -53.04760272 33.75598136 -50.25 24.75 C-46.02687933 14.52795881 -37.86983891 7.53315959 -27.94140625 3.25390625 C-18.77511046 0.13369485 -9.58132653 0.0380318 0 0 Z " fill="#02224C" transform="translate(1814.6875,316.5625)"/>
<path d="M0 0 C14.19 0 28.38 0 43 0 C53.15963805 27.61239954 63.28755106 55.23615825 73.375 82.875 C73.62648426 83.56402027 73.87796852 84.25304054 74.13707352 84.96294022 C81.25390713 104.46205591 81.25390713 104.46205591 82.87322998 108.91937256 C83.63456532 111.00088918 84.40570623 113.07884154 85.18585205 115.15338135 C85.55329529 116.13675476 85.92073853 117.12012817 86.29931641 118.13330078 C86.6273526 119.00093048 86.95538879 119.86856018 87.29336548 120.76248169 C88 123 88 123 88 126 C74.8 126 61.6 126 48 126 C45 118 45 118 42 105 C28.14 105 14.28 105 0 105 C-1.32 110.28 -2.64 115.56 -4 121 C-4.66 122.65 -5.32 124.3 -6 126 C-18.87 126 -31.74 126 -45 126 C-43.8750904 118.12563277 -43.8750904 118.12563277 -42.59912109 114.70703125 C-42.16875298 113.53782639 -42.16875298 113.53782639 -41.72969055 112.34500122 C-41.41412704 111.50927582 -41.09856354 110.67355042 -40.7734375 109.8125 C-40.43753098 108.90515106 -40.10162445 107.99780212 -39.75553894 107.06295776 C-38.63492865 104.03961565 -37.50485827 101.01989686 -36.375 98 C-35.16888218 94.75308031 -33.96532529 91.50521854 -32.76191711 88.2572937 C-31.90110965 85.93435419 -31.03950631 83.61170948 -30.1771698 81.28933716 C-26.68202241 71.86913956 -23.23001216 62.43370954 -19.79296875 52.9921875 C-19.53334099 52.27924782 -19.27371323 51.56630814 -19.00621796 50.83176422 C-16.67930198 44.44202503 -14.35355727 38.05186063 -12.03070068 31.66064453 C-10.81425609 28.31396333 -9.59589115 24.96798673 -8.3762455 21.62247086 C-7.71163936 19.79773919 -7.04916825 17.97223033 -6.38676453 16.146698 C-5.98399796 15.04238434 -5.58123138 13.93807068 -5.16625977 12.80029297 C-4.81862076 11.84444305 -4.47098175 10.88859314 -4.11280823 9.90377808 C-2.83363685 6.56588957 -1.40810469 3.28557761 0 0 Z M20 36 C18.42641836 41.19403689 16.8600444 46.39017207 15.30029297 51.58837891 C14.76873876 53.35622638 14.23522416 55.12348565 13.69970703 56.89013672 C12.93004751 59.43044152 12.16747637 61.97278228 11.40625 64.515625 C11.16563843 65.30430969 10.92502686 66.09299438 10.67712402 66.90557861 C9.62428483 70.44550245 9 73.27598285 9 77 C17.25 77 25.5 77 34 77 C32.77362416 72.76810348 31.54695596 68.5362938 30.31958008 64.3046875 C29.90339908 62.86951409 29.48737926 61.43429393 29.0715332 59.99902344 C26.75047029 51.98842363 24.42036579 43.98131549 22 36 C21.34 36 20.68 36 20 36 Z " fill="#02234D" transform="translate(681,319)"/>
<path d="M0 0 C12.16875 -0.061875 24.3375 -0.12375 36.875 -0.1875 C42.61173096 -0.22846802 42.61173096 -0.22846802 48.46435547 -0.27026367 C53.17993164 -0.28381348 53.17993164 -0.28381348 55.39627075 -0.28633118 C56.92502471 -0.29090011 58.45376872 -0.3013718 59.98245239 -0.31672668 C72.80967226 -0.4389883 83.83287635 0.37157897 94 9 C102.87699505 18.36154719 104.41121733 29.48177858 104.21484375 41.9140625 C103.80230407 52.98857482 99.75498053 61.64370912 91.8125 69.25 C77.16206407 81.45869661 56.95711141 79 39 79 C39 94.51 39 110.02 39 126 C26.13 126 13.26 126 0 126 C0 84.42 0 42.84 0 0 Z M39 26 C39 34.91 39 43.82 39 53 C41.68125 52.896875 44.3625 52.79375 47.125 52.6875 C47.95789551 52.66260498 48.79079102 52.63770996 49.64892578 52.61206055 C55.59131441 52.32068358 59.79216358 50.91733162 64.375 46.9375 C66.76424994 42.61847126 67.01174577 38.81890762 66 34 C63.71514447 30.02478114 61.37344571 27.45781524 57 26 C55.59175107 25.91978001 54.18002769 25.89234023 52.76953125 25.90234375 C51.68442261 25.90609009 51.68442261 25.90609009 50.57739258 25.90991211 C49.20877075 25.92356812 49.20877075 25.92356812 47.8125 25.9375 C44.904375 25.958125 41.99625 25.97875 39 26 Z " fill="#02224C" transform="translate(1454,319)"/>
<path d="M0 0 C31.02 0 62.04 0 94 0 C94 9.24 94 18.48 94 28 C75.85 28 57.7 28 39 28 C39 34.93 39 41.86 39 49 C54.51 49 70.02 49 86 49 C86 57.58 86 66.16 86 75 C70.49 75 54.98 75 39 75 C39 91.83 39 108.66 39 126 C26.13 126 13.26 126 0 126 C0 84.42 0 42.84 0 0 Z " fill="#02224D" transform="translate(554,319)"/>
<path d="M0 0 C38.28 0 76.56 0 116 0 C116 10.56 116 21.12 116 32 C103.13 32 90.26 32 77 32 C77 63.02 77 94.04 77 126 C64.46 126 51.92 126 39 126 C39 94.98 39 63.96 39 32 C26.13 32 13.26 32 0 32 C0 21.44 0 10.88 0 0 Z " fill="#002C4F" transform="translate(1078,319)"/>
<path d="M0 0 C38.28 0 76.56 0 116 0 C116 10.56 116 21.12 116 32 C103.13 32 90.26 32 77 32 C77 63.02 77 94.04 77 126 C64.46 126 51.92 126 39 126 C39 94.98 39 63.96 39 32 C26.13 32 13.26 32 0 32 C0 21.44 0 10.88 0 0 Z " fill="#02224D" transform="translate(294,319)"/>
<path d="M0 0 C12.87 0 25.74 0 39 0 C39 41.58 39 83.16 39 126 C26.13 126 13.26 126 0 126 C0 84.42 0 42.84 0 0 Z " fill="#02224D" transform="translate(1703,319)"/>
<path d="M0 0 C5.32125 -0.061875 10.6425 -0.12375 16.125 -0.1875 C18.62731201 -0.22846802 18.62731201 -0.22846802 21.18017578 -0.27026367 C22.51854735 -0.27903444 23.85692698 -0.28667698 25.1953125 -0.29296875 C25.877146 -0.30831665 26.55897949 -0.32366455 27.26147461 -0.33947754 C31.92134925 -0.34200185 35.04857265 0.54061593 39 3 C42.50995576 7.17400145 43.80897102 10.55567416 44 16 C43.04498932 21.53906193 41.35875342 24.45217745 37 28 C34.1875 29.3125 34.1875 29.3125 32 30 C32.40089844 30.40347656 32.80179688 30.80695312 33.21484375 31.22265625 C37.53816981 35.84008612 48 47.2559322 48 54 C43.20318778 54.5987699 38.77733565 54.8399711 34 54 C30.67440051 51.21901088 28.98078541 47.81158969 27 44 C25.91154418 42.16532151 24.78695132 40.35153616 23.625 38.5625 C23.14289062 37.75941406 22.66078125 36.95632813 22.1640625 36.12890625 C19.35283252 33.05115393 19.35283252 33.05115393 11 31 C11 38.59 11 46.18 11 54 C7.37 54 3.74 54 0 54 C0 36.18 0 18.36 0 0 Z M11 9 C11 13.29 11 17.58 11 22 C13.39652528 22.08139142 15.79025436 22.14067009 18.1875 22.1875 C18.86103516 22.21263672 19.53457031 22.23777344 20.22851562 22.26367188 C24.6951533 22.3290373 27.46960589 21.77530043 31 19 C32.33333333 16.66666667 32.33333333 16.66666667 32 14 C30.01639093 11.36168302 28.43786658 9.30255415 25.08789062 8.59765625 C22.9340959 8.50850576 20.8393031 8.56250697 18.6875 8.6875 C17.94693359 8.71005859 17.20636719 8.73261719 16.44335938 8.75585938 C14.62802643 8.8144185 12.81374319 8.90409114 11 9 Z " fill="#0866DD" transform="translate(998,516)"/>
<path d="M0 0 C5.32125 -0.061875 10.6425 -0.12375 16.125 -0.1875 C18.62731201 -0.22846802 18.62731201 -0.22846802 21.18017578 -0.27026367 C22.51854735 -0.27903444 23.85692698 -0.28667698 25.1953125 -0.29296875 C25.877146 -0.30831665 26.55897949 -0.32366455 27.26147461 -0.33947754 C31.92134925 -0.34200185 35.04857265 0.54061593 39 3 C42.50995576 7.17400145 43.80897102 10.55567416 44 16 C43.04498932 21.53906193 41.35875342 24.45217745 37 28 C34.1875 29.3125 34.1875 29.3125 32 30 C32.40089844 30.40347656 32.80179688 30.80695312 33.21484375 31.22265625 C37.53816981 35.84008612 48 47.2559322 48 54 C43.20318778 54.5987699 38.77733565 54.8399711 34 54 C30.67440051 51.21901088 28.98078541 47.81158969 27 44 C25.91154418 42.16532151 24.78695132 40.35153616 23.625 38.5625 C23.14289062 37.75941406 22.66078125 36.95632813 22.1640625 36.12890625 C19.35283252 33.05115393 19.35283252 33.05115393 11 31 C11 38.59 11 46.18 11 54 C7.37 54 3.74 54 0 54 C0 36.18 0 18.36 0 0 Z M11 9 C11 13.29 11 17.58 11 22 C13.39652528 22.08139142 15.79025436 22.14067009 18.1875 22.1875 C18.86103516 22.21263672 19.53457031 22.23777344 20.22851562 22.26367188 C24.6951533 22.3290373 27.46960589 21.77530043 31 19 C32.33333333 16.66666667 32.33333333 16.66666667 32 14 C30.01639093 11.36168302 28.43786658 9.30255415 25.08789062 8.59765625 C22.9340959 8.50850576 20.8393031 8.56250697 18.6875 8.6875 C17.94693359 8.71005859 17.20636719 8.73261719 16.44335938 8.75585938 C14.62802643 8.8144185 12.81374319 8.90409114 11 9 Z " fill="#0866DD" transform="translate(718,516)"/>
<path d="M0 0 C3.96 0 7.92 0 12 0 C12.78503906 1.38832031 13.57007813 2.77664063 14.37890625 4.20703125 C15.43995574 6.07560513 16.50116211 7.94408992 17.5625 9.8125 C18.07619141 10.72193359 18.58988281 11.63136719 19.11914062 12.56835938 C19.89741211 13.93637695 19.89741211 13.93637695 20.69140625 15.33203125 C21.15748291 16.15421143 21.62355957 16.9763916 22.10375977 17.82348633 C24.96335009 22.61376954 28.00482797 27.2933011 31 32 C31.33 21.44 31.66 10.88 32 0 C35.3 0 38.6 0 42 0 C42 17.82 42 35.64 42 54 C30 54 30 54 27.09301758 51.35375977 C26.07417297 49.60414124 26.07417297 49.60414124 25.14453125 47.69140625 C24.78654953 47.05009262 24.42856781 46.40877899 24.05973816 45.74803162 C22.93277369 43.70691221 21.87315217 41.63871638 20.8125 39.5625 C20.06089512 38.17152082 19.30507136 36.78281252 18.54492188 35.39648438 C17.16424848 32.86934817 15.8110484 30.33112094 14.48364258 27.77563477 C13.25979868 25.16304024 13.25979868 25.16304024 12 24 C11.67 33.9 11.34 43.8 11 54 C7.37 54 3.74 54 0 54 C0 36.18 0 18.36 0 0 Z " fill="#0866DD" transform="translate(1256,516)"/>
<path d="M0 0 C4.62 -0.0825 9.24 -0.165 14 -0.25 C16.16175781 -0.30462402 16.16175781 -0.30462402 18.3671875 -0.36035156 C25.72581553 -0.42385865 30.83823306 -0.17218436 37 4 C43.59268774 11.18726192 44.9060505 19.47586922 45 29 C44.16146925 37.97926678 42.01638704 44.96264371 35 51 C30.50535509 53.67263254 27.27650735 54.36207753 22.0703125 54.29296875 C20.32645264 54.28172974 20.32645264 54.28172974 18.54736328 54.27026367 C17.0879834 54.24295166 15.62860352 54.21563965 14.125 54.1875 C9.46375 54.125625 4.8025 54.06375 0 54 C0 36.18 0 18.36 0 0 Z M11 9 C11 20.88 11 32.76 11 45 C21.30268857 45.59639247 21.30268857 45.59639247 29.6875 41.875 C33.5873573 36.30377528 33.65619943 28.54180353 33 22 C32.09936697 17.74007151 31.12921416 14.16564043 28.0625 11 C22.21952781 8.16704379 17.93870481 9 11 9 Z " fill="#0866DD" transform="translate(1354,516)"/>
<path d="M0 0 C4.62 -0.0825 9.24 -0.165 14 -0.25 C16.16175781 -0.30462402 16.16175781 -0.30462402 18.3671875 -0.36035156 C25.72581553 -0.42385865 30.83823306 -0.17218436 37 4 C43.59268774 11.18726192 44.9060505 19.47586922 45 29 C44.16146925 37.97926678 42.01638704 44.96264371 35 51 C30.50535509 53.67263254 27.27650735 54.36207753 22.0703125 54.29296875 C20.32645264 54.28172974 20.32645264 54.28172974 18.54736328 54.27026367 C17.0879834 54.24295166 15.62860352 54.21563965 14.125 54.1875 C9.46375 54.125625 4.8025 54.06375 0 54 C0 36.18 0 18.36 0 0 Z M11 9 C11 20.88 11 32.76 11 45 C21.30268857 45.59639247 21.30268857 45.59639247 29.6875 41.875 C33.5873573 36.30377528 33.65619943 28.54180353 33 22 C32.09936697 17.74007151 31.12921416 14.16564043 28.0625 11 C22.21952781 8.16704379 17.93870481 9 11 9 Z " fill="#0866DD" transform="translate(1096,516)"/>
<path d="M0 0 C3.18471971 1.98698817 5.43525227 4.00854399 7.3125 7.3125 C7.9013136 10.01500345 8.12436482 12.53750615 8.3125 15.3125 C4.3525 15.3125 0.3925 15.3125 -3.6875 15.3125 C-4.3475 13.6625 -5.0075 12.0125 -5.6875 10.3125 C-8.78867648 8.00684271 -11.20191094 8.19597512 -14.9375 8.6875 C-15.82953125 8.79835938 -16.7215625 8.90921875 -17.640625 9.0234375 C-18.31609375 9.11882813 -18.9915625 9.21421875 -19.6875 9.3125 C-20.02175735 11.68624861 -20.02175735 11.68624861 -19.6875 14.3125 C-16.16181973 18.19440185 -10.59617162 18.98307006 -5.70703125 20.33007812 C-0.21445732 21.92819992 4.43856335 23.98623382 8.125 28.5625 C10.36311041 33.74549253 10.95851243 38.16683757 9.1875 43.5 C7.14530933 48.20350702 4.45462199 51.42437935 -0.36328125 53.421875 C-7.60427123 55.36188172 -17.52623801 55.84590889 -24.4375 52.625 C-30.30109643 48.45282562 -32.08341216 45.01341248 -33.390625 38.10546875 C-33.48859375 37.51378906 -33.5865625 36.92210937 -33.6875 36.3125 C-30.93671116 35.39557039 -29.32801087 35.20363917 -26.5 35.25 C-25.241875 35.270625 -23.98375 35.29125 -22.6875 35.3125 C-22.130625 36.42625 -21.57375 37.54 -21 38.6875 C-19.58895179 41.11627288 -18.81473369 42.22767754 -16.4375 43.8125 C-11.99780103 44.61971799 -7.62775273 44.52515795 -3.6875 42.0625 C-2.36451941 39.74728397 -2.6188347 37.93894766 -2.6875 35.3125 C-3.35394531 35.07015625 -4.02039063 34.8278125 -4.70703125 34.578125 C-6.6504603 33.87142353 -8.59171773 33.15873326 -10.53125 32.44140625 C-12.55737909 31.71671404 -14.59893207 31.03307412 -16.65625 30.40234375 C-23.02822342 28.38046757 -27.15145102 26.12943554 -30.6875 20.3125 C-32.24167619 15.64997142 -32.23198802 11.82496673 -30.5625 7.1875 C-24.12666965 -2.6807732 -10.54473522 -4.95283018 0 0 Z " fill="#0866DE" transform="translate(962.6875,516.6875)"/>
<path d="M0 0 C3.18471971 1.98698817 5.43525227 4.00854399 7.3125 7.3125 C7.9013136 10.01500345 8.12436482 12.53750615 8.3125 15.3125 C4.3525 15.3125 0.3925 15.3125 -3.6875 15.3125 C-4.3475 13.6625 -5.0075 12.0125 -5.6875 10.3125 C-8.78867648 8.00684271 -11.20191094 8.19597512 -14.9375 8.6875 C-15.82953125 8.79835938 -16.7215625 8.90921875 -17.640625 9.0234375 C-18.31609375 9.11882813 -18.9915625 9.21421875 -19.6875 9.3125 C-20.02175735 11.68624861 -20.02175735 11.68624861 -19.6875 14.3125 C-16.16181973 18.19440185 -10.59617162 18.98307006 -5.70703125 20.33007812 C-0.21445732 21.92819992 4.43856335 23.98623382 8.125 28.5625 C10.36311041 33.74549253 10.95851243 38.16683757 9.1875 43.5 C7.14530933 48.20350702 4.45462199 51.42437935 -0.36328125 53.421875 C-7.60427123 55.36188172 -17.52623801 55.84590889 -24.4375 52.625 C-30.30109643 48.45282562 -32.08341216 45.01341248 -33.390625 38.10546875 C-33.48859375 37.51378906 -33.5865625 36.92210937 -33.6875 36.3125 C-30.93671116 35.39557039 -29.32801087 35.20363917 -26.5 35.25 C-25.241875 35.270625 -23.98375 35.29125 -22.6875 35.3125 C-22.130625 36.42625 -21.57375 37.54 -21 38.6875 C-19.58895179 41.11627288 -18.81473369 42.22767754 -16.4375 43.8125 C-11.99780103 44.61971799 -7.62775273 44.52515795 -3.6875 42.0625 C-2.36451941 39.74728397 -2.6188347 37.93894766 -2.6875 35.3125 C-3.35394531 35.07015625 -4.02039063 34.8278125 -4.70703125 34.578125 C-6.6504603 33.87142353 -8.59171773 33.15873326 -10.53125 32.44140625 C-12.55737909 31.71671404 -14.59893207 31.03307412 -16.65625 30.40234375 C-23.02822342 28.38046757 -27.15145102 26.12943554 -30.6875 20.3125 C-32.24167619 15.64997142 -32.23198802 11.82496673 -30.5625 7.1875 C-24.12666965 -2.6807732 -10.54473522 -4.95283018 0 0 Z " fill="#0866DE" transform="translate(654.6875,516.6875)"/>
<path d="M0 0 C13.2 0 26.4 0 40 0 C40 2.97 40 5.94 40 9 C30.43 9 20.86 9 11 9 C11 12.96 11 16.92 11 21 C19.91 21 28.82 21 38 21 C38 23.97 38 26.94 38 30 C29.09 30 20.18 30 11 30 C11 34.95 11 39.9 11 45 C20.9 45 30.8 45 41 45 C41 47.97 41 50.94 41 54 C27.47 54 13.94 54 0 54 C0 36.18 0 18.36 0 0 Z " fill="#0767DE" transform="translate(1307,516)"/>
<path d="M0 0 C13.2 0 26.4 0 40 0 C40 2.97 40 5.94 40 9 C30.43 9 20.86 9 11 9 C11 12.96 11 16.92 11 21 C19.91 21 28.82 21 38 21 C38 23.97 38 26.94 38 30 C29.09 30 20.18 30 11 30 C11 34.95 11 39.9 11 45 C20.9 45 30.8 45 41 45 C41 47.97 41 50.94 41 54 C27.47 54 13.94 54 0 54 C0 36.18 0 18.36 0 0 Z " fill="#0767DE" transform="translate(1147,516)"/>
<path d="M0 0 C13.2 0 26.4 0 40 0 C40 2.97 40 5.94 40 9 C30.43 9 20.86 9 11 9 C11 12.96 11 16.92 11 21 C19.91 21 28.82 21 38 21 C38 23.97 38 26.94 38 30 C29.09 30 20.18 30 11 30 C11 34.95 11 39.9 11 45 C20.9 45 30.8 45 41 45 C41 47.97 41 50.94 41 54 C27.47 54 13.94 54 0 54 C0 36.18 0 18.36 0 0 Z " fill="#0767DE" transform="translate(1049,516)"/>
<path d="M0 0 C13.2 0 26.4 0 40 0 C40 2.97 40 5.94 40 9 C30.43 9 20.86 9 11 9 C11 12.96 11 16.92 11 21 C19.91 21 28.82 21 38 21 C38 23.97 38 26.94 38 30 C29.09 30 20.18 30 11 30 C11 34.95 11 39.9 11 45 C20.9 45 30.8 45 41 45 C41 47.97 41 50.94 41 54 C27.47 54 13.94 54 0 54 C0 36.18 0 18.36 0 0 Z " fill="#0767DE" transform="translate(885,516)"/>
<path d="M0 0 C13.2 0 26.4 0 40 0 C40 2.97 40 5.94 40 9 C30.43 9 20.86 9 11 9 C11 12.96 11 16.92 11 21 C19.91 21 28.82 21 38 21 C38 23.97 38 26.94 38 30 C29.09 30 20.18 30 11 30 C11 34.95 11 39.9 11 45 C20.9 45 30.8 45 41 45 C41 47.97 41 50.94 41 54 C27.47 54 13.94 54 0 54 C0 36.18 0 18.36 0 0 Z " fill="#0767DE" transform="translate(671,516)"/>
<path d="M0 0 C4.37260256 2.63489442 7.53439983 6.89111549 9.5 11.5625 C9.17 12.8825 8.84 14.2025 8.5 15.5625 C5.2 15.8925 1.9 16.2225 -1.5 16.5625 C-2.0775 15.61375 -2.655 14.665 -3.25 13.6875 C-5.71379845 10.06935853 -5.71379845 10.06935853 -9.5 8.5625 C-13.57004952 8.50363565 -16.55825487 8.86858253 -19.875 11.3125 C-24.70526746 18.00056264 -24.17631412 25.68051817 -23.5 33.5625 C-22.37982969 37.72832258 -20.85971582 40.64377309 -17.1875 43.125 C-13.63294715 43.70364814 -10.99262318 43.45153136 -7.5 42.5625 C-4.16707362 40.04028544 -2.81002926 37.49258778 -1.5 33.5625 C5.92857143 34.5625 5.92857143 34.5625 9.5 35.5625 C8.90957946 41.76191562 6.61786993 45.60754314 2.0625 49.8125 C-4.70216619 54.43227203 -11.53327721 54.27526455 -19.5 53.5625 C-25.7286443 51.92441559 -30.07540688 47.91809423 -33.5 42.5625 C-37.67519012 34.65327193 -37.79589568 24.9520969 -35.73828125 16.39453125 C-33.32233715 9.31858429 -30.66610288 4.60839565 -24.125 0.75 C-16.72431592 -2.70949137 -7.6276829 -3.15628258 0 0 Z " fill="#0866DE" transform="translate(868.5,516.4375)"/>
<path d="M0 0 C3.96 0 7.92 0 12 0 C12.35827881 1.05501709 12.71655762 2.11003418 13.08569336 3.19702148 C14.41150843 7.09858674 15.74117143 10.99883127 17.07202148 14.89868164 C17.64827409 16.58907679 18.22347232 18.27983175 18.79760742 19.97094727 C19.62143664 22.39694304 20.44900745 24.82163377 21.27734375 27.24609375 C21.53466782 28.00651474 21.79199188 28.76693573 22.05711365 29.55039978 C23.04701556 33.04670333 23.04701556 33.04670333 25 36 C25.32798584 34.94498291 25.65597168 33.88996582 25.99389648 32.80297852 C27.20771373 28.9014412 28.42561469 25.00118892 29.64477539 21.10131836 C30.17259017 19.4109131 30.69928595 17.72015803 31.22485352 16.02905273 C31.9790155 13.60308209 32.73714854 11.1783841 33.49609375 8.75390625 C33.73154404 7.99348526 33.96699432 7.23306427 34.20957947 6.44960022 C35.88612829 1.11387171 35.88612829 1.11387171 37 0 C39.01964199 -0.07244053 41.04167124 -0.08377188 43.0625 -0.0625 C44.71958984 -0.04896484 44.71958984 -0.04896484 46.41015625 -0.03515625 C47.26480469 -0.02355469 48.11945312 -0.01195312 49 0 C47.10473493 7.27894499 44.93366673 14.39056722 42.42578125 21.48046875 C42.09708542 22.41933426 41.76838959 23.35819977 41.42973328 24.32551575 C40.39419987 27.28076843 39.35345189 30.23415215 38.3125 33.1875 C37.60316762 35.20886229 36.8941802 37.23034566 36.18554688 39.25195312 C34.46100932 44.16937525 32.73179746 49.08513018 31 54 C26.71 54 22.42 54 18 54 C15.33076343 47.43977039 12.83663896 40.86137763 10.546875 34.16015625 C10.24179016 33.2713829 9.93670532 32.38260956 9.62237549 31.46690369 C8.98583845 29.60949941 8.35065732 27.75162994 7.71679688 25.89331055 C6.74353788 23.0435787 5.76257387 20.19657263 4.78125 17.34960938 C4.1609902 15.53661842 3.54118202 13.72347289 2.921875 11.91015625 C2.62819031 11.0601857 2.33450562 10.21021515 2.03192139 9.33448792 C1.76454163 8.54614059 1.49716187 7.75779327 1.22167969 6.94555664 C0.98503601 6.25401993 0.74839233 5.56248322 0.50457764 4.84999084 C0 3 0 3 0 0 Z " fill="#0866DE" transform="translate(763,516)"/>
<path d="M0 0 C12.21 0 24.42 0 37 0 C37 2.97 37 5.94 37 9 C28.42 9 19.84 9 11 9 C11 13.29 11 17.58 11 22 C18.26 22 25.52 22 33 22 C33 24.97 33 27.94 33 31 C25.74 31 18.48 31 11 31 C11 38.59 11 46.18 11 54 C7.37 54 3.74 54 0 54 C0 36.18 0 18.36 0 0 Z " fill="#0766DD" transform="translate(1194,516)"/>
<path d="M0 0 C3.63 0 7.26 0 11 0 C11 17.82 11 35.64 11 54 C7.37 54 3.74 54 0 54 C0 36.18 0 18.36 0 0 Z " fill="#0866DE" transform="translate(1237,516)"/>
<path d="M0 0 C3.63 0 7.26 0 11 0 C11 17.82 11 35.64 11 54 C7.37 54 3.74 54 0 54 C0 36.18 0 18.36 0 0 Z " fill="#0866DE" transform="translate(815,516)"/>
</svg>
